#!OML:ASF I:\Actors\actors\Patient Classification 2\Patient 1\Session 1\actor1.ASF
:FULLY-SPECIFIED
:DEGREES
314
root -1.00357 18.282 5.5257 -7.34032 3.34631 -3.03073
lowerback 13.8844 1.01965 0.0449017
upperback 3.12133 1.49577 2.56861
thorax -4.55657 0.748883 2.4098
lowerneck -7.69277 -4.26791 -0.77238
upperneck 18.852 -6.10581 1.90066
head 7.11425 -2.81483 0.230141
rclavicle -6.08778e-015 1.35174e-014
rhumerus 25.5455 26.2823 -60.331
rradius 65.8157
rwrist 13.3748
rhand -18.7713 -37.5988
rfingers 7.12502
rthumb 7.52589 -67.4449
lclavicle -6.08778e-015 1.35174e-014
lhumerus 29.2515 -27.7008 66.59
lradius 62.3492
lwrist 19.9302
lhand -10.6672 -14.2284
lfingers 7.12502
lthumb 15.3411 15.1825
rfemur 8.46308 -4.26603 17.6716
rtibia 16.33
rfoot -21.7994 -6.60448
rtoes -10.9552
lfemur -7.68363 2.52155 -12.8013
ltibia 38.7953
lfoot -21.9515 7.95723
ltoes -54.6941
315
root -0.979216 18.2828 5.51297 -7.31691 3.32187 -3.06174
lowerback 13.8724 1.02036 0.111898
upperback 3.10949 1.50771 2.59399
thorax -4.56199 0.754218 2.39654
lowerneck -7.5593 -4.24468 -0.598561
upperneck 18.7395 -6.08126 1.82422
head 7.04573 -2.80052 0.183961
rclavicle 3.72721e-015 1.23246e-014
rhumerus 25.6374 26.3326 -60.2722
rradius 65.6923
rwrist 13.1986
rhand -18.9168 -38.2749
rfingers 7.12502
rthumb 7.38549 -68.126
lclavicle 3.72721e-015 1.23246e-014
lhumerus 29.2711 -27.7123 66.5576
lradius 62.3545
lwrist 20.7243
lhand -10.5625 -13.8707
lfingers 7.12502
lthumb 15.4419 15.5324
rfemur 8.41548 -4.18029 17.6501
rtibia 16.2657
rfoot -21.7358 -6.74108
rtoes -10.9488
lfemur -7.68731 2.48074 -12.8603
ltibia 38.7086
lfoot -22.0713 7.89151
ltoes -54.5766
316
root -0.952212 18.2841 5.49889 -7.30665 3.27942 -3.15241
lowerback 13.8858 1.0042 0.251992
upperback 3.10881 1.5089 2.63839
thorax -4.56781 0.753422 2.36359
lowerneck -7.55751 -4.22946 -0.527605
upperneck 18.7165 -6.06049 1.77313
head 7.03378 -2.79039 0.158097
rclavicle -6.23687e-015 -9.14409e-015
rhumerus 25.725 26.2947 -60.3164
rradius 65.5538
rwrist 13.0087
rhand -18.7562 -38.9406
rfingers 7.12502
rthumb 7.54046 -68.7862
lclavicle -6.23687e-015 -9.14409e-015
lhumerus 29.3193 -27.6748 66.5508
lradius 62.3819
lwrist 21.538
lhand -10.4291 -13.4068
lfingers 7.12502
lthumb 15.5704 15.9865
rfemur 8.38502 -3.957 17.7264
rtibia 16.1803
rfoot -21.8007 -6.96285
rtoes -10.6148
lfemur -7.68913 2.46001 -12.8595
ltibia 38.6447
lfoot -22.1835 7.8138
ltoes -54.3766
317
root -0.923293 18.2862 5.4839 -7.27749 3.2467 -3.23553
lowerback 13.885 0.988192 0.372465
upperback 3.10006 1.50774 2.68728
thorax -4.57484 0.751751 2.34704
lowerneck -7.57113 -4.21257 -0.523802
upperneck 18.7105 -6.04157 1.79293
head 7.03452 -2.77931 0.165142
rclavicle 2.57923e-014 9.54166e-015
rhumerus 25.7731 26.1529 -60.41
rradius 65.3849
rwrist 12.8418
rhand -18.3825 -39.4525
rfingers 7.12502
rthumb 7.90116 -69.2848
lclavicle 2.57923e-014 9.54166e-015
lhumerus 29.3519 -27.6562 66.5875
lradius 62.4552
lwrist 22.2045
lhand -10.4171 -13.0254
lfingers 7.12502
lthumb 15.582 16.3669
rfemur 8.36542 -3.68912 17.8
rtibia 16.0281
rfoot -21.8381 -7.21918
rtoes -9.93549
lfemur -7.72454 2.47046 -12.8778
ltibia 38.5882
lfoot -22.2477 7.78762
ltoes -54.3231
318
root -0.891349 18.2882 5.46937 -7.2624 3.22863 -3.29943
lowerback 13.8709 0.949862 0.472051
upperback 3.09541 1.47321 2.72698
thorax -4.56927 0.733758 2.3387
lowerneck -7.51452 -4.13811 -0.513421
upperneck 18.6502 -5.95079 1.85614
head 7.00555 -2.73112 0.193356
rclavicle 1.9133e-015 -2.26615e-014
rhumerus 25.765 26.0251 -60.5706
rradius 65.2257
rwrist 12.6123
rhand -18.1216 -39.838
rfingers 7.12502
rthumb 8.15301 -69.6607
lclavicle 1.9133e-015 -2.26615e-014
lhumerus 29.3258 -27.5898 66.6914
lradius 62.5331
lwrist 22.5999
lhand -10.3474 -12.8151
lfingers 7.12502
lthumb 15.6491 16.5719
rfemur 8.41642 -3.43195 17.8289
rtibia 15.7786
rfoot -21.8113 -7.43611
rtoes -9.02422
lfemur -7.74504 2.48043 -12.9287
ltibia 38.5269
lfoot -22.2984 7.78323
ltoes -54.2406
319
root -0.854507 18.2927 5.45625 -7.26711 3.20337 -3.40807
lowerback 13.8352 0.887156 0.648546
upperback 3.12195 1.41659 2.77801
thorax -4.51673 0.703865 2.3029
lowerneck -7.53867 -4.04666 -0.527127
upperneck 18.6126 -5.82479 1.86971
head 6.99677 -2.67082 0.210337
rclavicle 1.89342e-014 -3.97569e-016
rhumerus 25.7621 25.875 -60.7338
rradius 65.1004
rwrist 12.3652
rhand -17.7267 -40.3546
rfingers 7.12502
rthumb 8.53404 -70.1622
lclavicle 1.89342e-014 -3.97569e-016
lhumerus 29.3717 -27.4884 66.7904
lradius 62.5476
lwrist 22.6513
lhand -10.1963 -12.7785
lfingers 7.12502
lthumb 15.7946 16.5971
rfemur 8.51789 -3.28613 17.8522
rtibia 15.4749
rfoot -21.6879 -7.6318
rtoes -8.73072
lfemur -7.73379 2.45565 -12.9543
ltibia 38.4565
lfoot -22.386 7.82117
ltoes -54.2531
